<svg width="30" height="40" viewBox="0 0 30 40" fill="none" xmlns="http://www.w3.org/2000/svg">
<path d="M19.018 27.4025L19.018 18.7522L25.9342 22.7446C27.594 23.8093 28.9312 25.4063 29.3922 26.0717C30.4988 28.7333 29.8533 30.7295 29.3922 31.3949C29.1617 31.8385 29.1156 32.3264 28.009 33.3911C26.9024 34.4557 24.0899 34.5001 23.1677 34.0565L16.2516 30.0641C18.4648 30.5964 19.018 28.5115 19.018 27.4025Z" fill="#615DFF"/>
<path d="M23.5703 33.6739L26.0726 34.2908L24.2015 35.547L21.0822 37.4325L18.586 38.6907L16.0898 39.949L13.5895 39.9572L12.3373 39.3362L7.95369 36.8502L4.82222 34.9852L2.31582 33.1181L1.0616 31.872L0.430413 29.9989L0.399837 20.6228L1.02491 20.6208L5.40856 23.1068L11.6715 26.8368L17.3073 29.9438L20.4388 31.8088L23.5703 33.6739Z" fill="#37C3D3"/>
<path d="M11.281 12.7451L10.9781 21.39L4.20604 17.1578C2.58448 16.0357 1.30411 14.3929 0.866615 13.7118C-0.146071 11.013 0.56895 9.04064 1.05305 8.3918C1.29898 7.95654 1.36215 7.4705 2.50534 6.44527C3.64853 5.42003 6.46091 5.47418 7.36696 5.94981L14.139 10.182C11.9459 9.57248 11.3199 11.6368 11.281 12.7451Z" fill="#615DFF"/>
<path d="M6.87548 6.25074L4.37518 5.62567L6.25041 4.37552L9.37578 2.5003L11.8761 1.25015L14.3764 0H16.8767L18.1268 0.625074L22.5023 3.12537L25.6277 5.0006L28.128 6.87582L29.3782 8.12597L30.0032 10.0012V19.3773H29.3782L25.0026 16.877L18.7519 13.1266L13.1262 10.0012L10.0009 8.12597L6.87548 6.25074Z" fill="#37C3D3"/>
</svg>
