<svg width="174" height="40" viewBox="0 0 174 40" fill="none" xmlns="http://www.w3.org/2000/svg">
<path d="M23.018 27.4025L23.018 18.7522L29.9342 22.7446C31.594 23.8093 32.9312 25.4063 33.3922 26.0717C34.4988 28.7333 33.8533 30.7295 33.3922 31.3949C33.1617 31.8385 33.1156 32.3264 32.009 33.3911C30.9024 34.4557 28.0899 34.5001 27.1677 34.0565L20.2516 30.0641C22.4648 30.5964 23.018 28.5115 23.018 27.4025Z" fill="#615DFF"/>
<path d="M27.5703 33.6739L30.0726 34.2908L28.2015 35.547L25.0822 37.4325L22.586 38.6907L20.0898 39.949L17.5895 39.9572L16.3373 39.3362L11.9537 36.8502L8.82222 34.9852L6.31582 33.1181L5.0616 31.872L4.43041 29.9989L4.39984 20.6228L5.02491 20.6208L9.40856 23.1068L15.6715 26.8368L21.3073 29.9438L24.4388 31.8088L27.5703 33.6739Z" fill="#37C3D3"/>
<path d="M15.281 12.7451L14.9781 21.39L8.20604 17.1578C6.58448 16.0357 5.30411 14.3929 4.86662 13.7118C3.85393 11.013 4.56895 9.04064 5.05305 8.3918C5.29898 7.95654 5.36215 7.4705 6.50534 6.44527C7.64853 5.42003 10.4609 5.47418 11.367 5.94981L18.139 10.182C15.9459 9.57248 15.3199 11.6368 15.281 12.7451Z" fill="#615DFF"/>
<path d="M10.8755 6.25074L8.37518 5.62567L10.2504 4.37552L13.3758 2.5003L15.8761 1.25015L18.3764 0H20.8767L22.1268 0.625074L26.5023 3.12537L29.6277 5.0006L32.128 6.87582L33.3782 8.12597L34.0032 10.0012V19.3773H33.3782L29.0026 16.877L22.7519 13.1266L17.1262 10.0012L14.0009 8.12597L10.8755 6.25074Z" fill="#37C3D3"/>
<path d="M57.038 11.45L56.414 14.492L54.802 14.05C53.658 13.79 52.6613 13.66 51.812 13.66C50.6333 13.66 50.044 14.2233 50.044 15.35C50.044 15.7833 50.2433 16.182 50.642 16.546C51.058 16.8927 51.578 17.1873 52.202 17.43C52.826 17.6553 53.4933 17.9413 54.204 18.288C54.9147 18.6347 55.582 19.0073 56.206 19.406C56.83 19.8047 57.3413 20.3507 57.74 21.044C58.156 21.7373 58.364 22.5347 58.364 23.436C58.364 25.2213 57.7833 26.6253 56.622 27.648C55.478 28.6533 53.8573 29.156 51.76 29.156C50.6853 29.156 49.6107 29.0173 48.536 28.74C47.4787 28.4453 46.6033 28.1073 45.91 27.726L47.028 24.944C48.6227 25.672 50.2 26.036 51.76 26.036C52.644 26.036 53.3373 25.8367 53.84 25.438C54.3427 25.022 54.594 24.4933 54.594 23.852C54.594 23.2107 54.308 22.682 53.736 22.266C53.164 21.8327 52.4707 21.4513 51.656 21.122C50.8413 20.7753 50.0267 20.394 49.212 19.978C48.3973 19.5447 47.704 18.9467 47.132 18.184C46.56 17.404 46.274 16.4853 46.274 15.428C46.274 13.8507 46.768 12.646 47.756 11.814C48.744 10.9647 50.07 10.54 51.734 10.54C53.4153 10.54 55.1833 10.8433 57.038 11.45ZM64.7023 14.05H61.3223V10.8H64.7023V14.05ZM64.7023 29H61.3223V16H64.7023V29ZM72.221 29H68.815V16H71.675L72.117 17.17C72.8623 16.6153 73.5037 16.2427 74.041 16.052C74.5957 15.844 75.237 15.74 75.965 15.74C77.2823 15.74 78.2443 16.338 78.851 17.534C79.8217 16.8233 80.6017 16.3467 81.191 16.104C81.7977 15.8613 82.4563 15.74 83.167 15.74C84.2417 15.74 85.091 16.1387 85.715 16.936C86.339 17.716 86.651 18.8687 86.651 20.394V29H83.245V21.304C83.245 19.7093 82.7683 18.912 81.815 18.912C81.1043 18.912 80.2897 19.3107 79.371 20.108V29H75.991V21.304C75.991 19.7093 75.523 18.912 74.587 18.912C73.8937 18.912 73.105 19.2847 72.221 20.03V29ZM101.592 22.526C101.592 24.606 101.063 26.2353 100.006 27.414C98.9487 28.5927 97.4494 29.182 95.508 29.182C93.5667 29.182 92.0934 28.5927 91.088 27.414C90.0827 26.2353 89.58 24.5973 89.58 22.5C89.58 20.4027 90.0827 18.756 91.088 17.56C92.0934 16.3467 93.5407 15.74 95.43 15.74C97.3194 15.74 98.8187 16.3553 99.928 17.586C101.037 18.7993 101.592 20.446 101.592 22.526ZM98.134 22.474C98.134 19.822 97.2847 18.496 95.586 18.496C93.8527 18.496 92.986 19.8133 92.986 22.448C92.986 25.0827 93.8614 26.4 95.612 26.4C96.548 26.4 97.198 26.0707 97.562 25.412C97.9434 24.736 98.134 23.7567 98.134 22.474ZM115.589 29H112.157V21.226C112.157 20.5153 112.018 19.9433 111.741 19.51C111.464 19.0593 111.004 18.834 110.363 18.834C109.722 18.834 108.924 19.2327 107.971 20.03V29H104.565V16H107.425L107.971 17.17C108.716 16.6153 109.358 16.2427 109.895 16.052C110.45 15.844 111.091 15.74 111.819 15.74C112.98 15.74 113.899 16.13 114.575 16.91C115.251 17.6727 115.589 18.808 115.589 20.316V29ZM123.075 14.05H119.695V10.8H123.075V14.05ZM123.075 29H119.695V16H123.075V29ZM130.568 35.162H127.188V16H129.762L130.386 17.378C131.027 16.8407 131.608 16.4333 132.128 16.156C132.665 15.8787 133.263 15.74 133.922 15.74C135.361 15.74 136.453 16.338 137.198 17.534C137.961 18.73 138.342 20.4027 138.342 22.552C138.342 24.7013 137.857 26.348 136.886 27.492C135.915 28.6187 134.771 29.182 133.454 29.182C132.501 29.182 131.539 28.766 130.568 27.934V35.162ZM130.568 20.004V24.762C131.123 25.6633 131.807 26.114 132.622 26.114C133.454 26.114 134.026 25.8193 134.338 25.23C134.667 24.6407 134.832 23.7393 134.832 22.526C134.832 21.3127 134.659 20.3767 134.312 19.718C133.965 19.0593 133.532 18.73 133.012 18.73C132.267 18.73 131.452 19.1547 130.568 20.004ZM144.787 20.368V29H141.381V16H144.085L144.397 17.274C145.091 16.7193 145.671 16.3293 146.139 16.104C146.607 15.8613 147.015 15.74 147.361 15.74C147.725 15.74 147.968 15.7487 148.089 15.766C148.211 15.766 148.315 15.7747 148.401 15.792C148.488 15.8093 148.635 15.844 148.843 15.896L148.531 18.99C148.219 18.886 147.795 18.834 147.257 18.834C146.529 18.834 145.706 19.3453 144.787 20.368ZM162.276 22.526C162.276 24.606 161.747 26.2353 160.69 27.414C159.632 28.5927 158.133 29.182 156.192 29.182C154.25 29.182 152.777 28.5927 151.772 27.414C150.766 26.2353 150.264 24.5973 150.264 22.5C150.264 20.4027 150.766 18.756 151.772 17.56C152.777 16.3467 154.224 15.74 156.114 15.74C158.003 15.74 159.502 16.3553 160.612 17.586C161.721 18.7993 162.276 20.446 162.276 22.526ZM158.818 22.474C158.818 19.822 157.968 18.496 156.27 18.496C154.536 18.496 153.67 19.8133 153.67 22.448C153.67 25.0827 154.545 26.4 156.296 26.4C157.232 26.4 157.882 26.0707 158.246 25.412C158.627 24.736 158.818 23.7567 158.818 22.474Z" fill="#11142D"/>
</svg>
